<svg xmlns="http://www.w3.org/2000/svg" width="31.419" height="31.419" viewBox="0 0 31.419 31.419">
  <path id="Icon_awesome-compass" data-name="Icon awesome-compass" d="M14.277,14.838a2.027,2.027,0,1,0,2.866,0A2.026,2.026,0,0,0,14.277,14.838ZM15.709.563A15.709,15.709,0,1,0,31.419,16.272,15.709,15.709,0,0,0,15.709.563ZM23.7,9.941l-4.179,9.144a2.023,2.023,0,0,1-1,1L9.379,24.262a1.252,1.252,0,0,1-1.66-1.66L11.9,13.459a2.023,2.023,0,0,1,1-1l9.143-4.179A1.252,1.252,0,0,1,23.7,9.941Z" transform="translate(0 -0.563)" fill="#fff"/>
</svg>
