<svg xmlns="http://www.w3.org/2000/svg" width="115.328" height="51.963" viewBox="0 0 115.328 51.963">
  <g id="Gruppe_20" data-name="Gruppe 20" transform="translate(-43.672 -54.731)">
    <g id="FOTOVISALOGO" transform="translate(44 55.233)">
      <path id="Pfad_3" data-name="Pfad 3" d="M52.346,11.86A24.276,24.276,0,1,1,28.538,40.9a46.279,46.279,0,0,1-.468-4.762" transform="translate(-21.83 -9.45)" fill="none" stroke="#fff" stroke-linecap="round" stroke-miterlimit="10" stroke-width="1"/>
      <path id="Pfad_4" data-name="Pfad 4" d="M61.472,152.721a43.784,43.784,0,0,1-39.462-18" transform="translate(-17.18 -103.714)" fill="none" stroke="#fff" stroke-linecap="round" stroke-miterlimit="10" stroke-width="1"/>
      <path id="Pfad_5" data-name="Pfad 5" d="M74.347,134.207a52.413,52.413,0,0,1-44.5-18.047" transform="translate(-23.196 -89.474)" fill="none" stroke="#fff" stroke-linecap="round" stroke-miterlimit="10" stroke-width="1"/>
      <path id="Pfad_6" data-name="Pfad 6" d="M114.773,125.77a56.694,56.694,0,0,1-29.538-5.94,55.926,55.926,0,0,1-7.185-4.35" transform="translate(-60.177 -88.953)" fill="none" stroke="#fff" stroke-linecap="round" stroke-miterlimit="10" stroke-width="1"/>
      <path id="Pfad_7" data-name="Pfad 7" d="M124.73,3.126c1.022-2.358,6.824-2.116,12.955.542s10.276,6.726,9.252,9.084-6.824,2.116-12.955-.542" transform="translate(-95.993 -1.504)" fill="none" stroke="#fff" stroke-linecap="round" stroke-miterlimit="10" stroke-width="1"/>
      <path id="Pfad_8" data-name="Pfad 8" d="M177.092,107.953a56.958,56.958,0,0,1-20.1-3.3" transform="translate(-120.744 -80.643)" fill="none" stroke="#fff" stroke-linecap="round" stroke-miterlimit="10" stroke-width="1"/>
      <path id="Pfad_9" data-name="Pfad 9" d="M177.092,69.143a56.958,56.958,0,0,1-20.1-3.3" transform="translate(-120.744 -50.866)" fill="none" stroke="#fff" stroke-linecap="round" stroke-miterlimit="10" stroke-width="1"/>
      <path id="Pfad_10" data-name="Pfad 10" d="M117.21,75.811s20.61-16.618,17.631-43.561" transform="translate(-90.223 -25.094)" fill="none" stroke="#fff" stroke-linecap="round" stroke-miterlimit="10" stroke-width="1"/>
      <path id="Pfad_11" data-name="Pfad 11" d="M70.3,134.179a47.292,47.292,0,0,1,2.16-20.319" transform="translate(-54.007 -87.71)" fill="none" stroke="#fff" stroke-linecap="round" stroke-miterlimit="10" stroke-width="1"/>
      <path id="Pfad_12" data-name="Pfad 12" d="M34.308,42.4h-30A2.311,2.311,0,0,1,2,40.093V24.3A2.311,2.311,0,0,1,4.311,21.99h30A2.311,2.311,0,0,1,36.621,24.3V40.093A2.311,2.311,0,0,1,34.31,42.4Z" transform="translate(-1.828 -17.222)" fill="none" stroke="#fff" stroke-miterlimit="10" stroke-width="1"/>
      <path id="Pfad_13" data-name="Pfad 13" d="M57.66,14.292l.505-1.953a.479.479,0,0,1,.479-.479h11.43a.479.479,0,0,1,.479.479l.647,1.878" transform="translate(-44.533 -9.45)" fill="none" stroke="#fff" stroke-miterlimit="10" stroke-width="1"/>
      <line id="Linie_1" data-name="Linie 1" x2="20.454" y2="0.242" transform="translate(14.47 9.321)" fill="none" stroke="#fff" stroke-miterlimit="10" stroke-width="1"/>
      <line id="Linie_2" data-name="Linie 2" y1="0.061" x2="4.56" transform="translate(0 9.269)" fill="none" stroke="#fff" stroke-miterlimit="10" stroke-width="1"/>
      <circle id="Ellipse_1" data-name="Ellipse 1" cx="1.224" cy="1.224" r="1.224" transform="translate(2.381 20.527)" fill="none" stroke="#fff" stroke-miterlimit="10" stroke-width="1"/>
      <circle id="Ellipse_2" data-name="Ellipse 2" cx="6.796" cy="6.796" r="6.796" transform="translate(2.739 7.156)" fill="none" stroke="#fff" stroke-miterlimit="10" stroke-width="1"/>
      <circle id="Ellipse_3" data-name="Ellipse 3" cx="4.101" cy="4.101" r="4.101" transform="translate(5.435 9.851)" fill="#fff" stroke="#fff" stroke-miterlimit="10" stroke-width="1"/>
    </g>
    <text id="FOTO_VISTA" data-name="FOTO
VISTA" transform="translate(103 77)" fill="#fff" font-size="20" font-family="SegoeUI-Bold, Segoe UI" font-weight="700"><tspan x="0" y="0">FOTO</tspan><tspan x="0" y="20">VISTA</tspan></text>
  </g>
</svg>
