<svg xmlns="http://www.w3.org/2000/svg" width="36" height="36" viewBox="0 0 36 36">
  <path id="lens-icon" d="M16.32,18.3,24.906,3.432A18.55,18.55,0,0,0,21,3,17.971,17.971,0,0,0,9.624,7.05l6.588,11.43Zm21.852-2.7a18.045,18.045,0,0,0-10.8-11.412L20.784,15.6H38.172Zm.468,1.8H25.158l.522.9,8.568,14.85A17.839,17.839,0,0,0,39,21,18.223,18.223,0,0,0,38.64,17.4ZM14.772,21,7.752,8.85A17.924,17.924,0,0,0,3,21a18.223,18.223,0,0,0,.36,3.6H16.842L14.772,21ZM3.828,26.4a18.045,18.045,0,0,0,10.8,11.412L21.216,26.4H3.828Zm20.286,0-7.02,12.168A18.55,18.55,0,0,0,21,39a17.971,17.971,0,0,0,11.376-4.05L25.788,23.52,24.114,26.4Z" transform="translate(-3 -3)" fill="#fff"/>
</svg>
