<svg xmlns="http://www.w3.org/2000/svg" width="24.881" height="22.517" viewBox="0 0 24.881 22.517">
  <g id="scroll-down" transform="translate(-927.079 -1018.772)">
    <path id="Icon_ionic-ios-arrow-down" data-name="Icon ionic-ios-arrow-down" d="M18.633,19.514l9.408-7.833a2.032,2.032,0,0,1,2.511,0,1.32,1.32,0,0,1,0,2.1L19.892,22.65a2.042,2.042,0,0,1-2.452.043L6.706,13.782a1.318,1.318,0,0,1,0-2.1,2.032,2.032,0,0,1,2.511,0Z" transform="translate(920.892 1018.208)" fill="#fff"/>
    <path id="Icon_ionic-ios-arrow-down-2" data-name="Icon ionic-ios-arrow-down" d="M18.633,19.514l9.408-7.833a2.032,2.032,0,0,1,2.511,0,1.32,1.32,0,0,1,0,2.1L19.892,22.65a2.042,2.042,0,0,1-2.452.043L6.706,13.782a1.318,1.318,0,0,1,0-2.1,2.032,2.032,0,0,1,2.511,0Z" transform="translate(920.892 1007.525)" fill="rgba(255,255,255,0.54)"/>
  </g>
</svg>
